<svg width="33" height="27" viewBox="0 0 33 27" fill="none" xmlns="http://www.w3.org/2000/svg">
<path d="M27.4334 1.61373L28.2403 0H31.4678L32.2746 1.61373L31.4678 3.22746V4.8412C32.2746 12.6409 32.2746 31.4678 2.4206 25.8197L0 25.0128V22.5922L1.61373 20.9785C16.4601 22.2695 25.5508 10.7582 28.2403 4.8412V3.22746L27.4334 1.61373Z" fill="#FFE178"/>
<path d="M2.4206 25.8198L0 25.0129V22.5923L1.61373 20.9786L2.4206 23.3992V25.8198Z" fill="#472A2A"/>
<path d="M31.4677 0H28.2403L27.4334 1.61373L28.2403 3.22746H31.4677L32.2746 1.61373L31.4677 0Z" fill="#C5D276"/>
<path d="M31.4677 0H28.2403L27.4334 1.61373H32.2746L31.4677 0Z" fill="#472A2A"/>
<path d="M29.8541 3.22748C28.5631 22.5923 11.0272 24.7439 2.42065 23.3991V25.8197C28.7187 31.234 33.0816 16.9442 31.4678 4.84121V3.22748H29.8541Z" fill="#E8C549"/>
</svg>
