<svg width="255" height="28" viewBox="0 0 255 28" fill="none" xmlns="http://www.w3.org/2000/svg">
<path d="M246.281 27.36C244.601 27.36 243.137 27.036 241.889 26.388C240.641 25.74 239.669 24.84 238.973 23.688C238.301 22.512 237.965 21.144 237.965 19.584V14.616C237.965 13.056 238.301 11.7 238.973 10.548C239.669 9.37197 240.641 8.45996 241.889 7.81196C243.137 7.16397 244.601 6.83997 246.281 6.83997C247.937 6.83997 249.377 7.16397 250.601 7.81196C251.849 8.45996 252.809 9.37197 253.481 10.548C254.177 11.7 254.525 13.056 254.525 14.616V18.18H242.321V19.584C242.321 20.976 242.657 22.032 243.329 22.752C244.001 23.448 244.997 23.796 246.317 23.796C247.325 23.796 248.141 23.628 248.765 23.292C249.389 22.932 249.785 22.416 249.953 21.744H254.381C254.045 23.448 253.133 24.816 251.645 25.848C250.181 26.856 248.393 27.36 246.281 27.36ZM250.169 15.66V14.58C250.169 13.212 249.845 12.168 249.197 11.448C248.549 10.704 247.577 10.332 246.281 10.332C244.985 10.332 244.001 10.704 243.329 11.448C242.657 12.192 242.321 13.248 242.321 14.616V15.372L250.493 15.3L250.169 15.66Z" fill="#301D1D"/>
<path d="M216.739 27V0.719971H221.239V14.976H224.371L229.195 7.19997H234.235L228.259 16.776L234.343 27H229.195L224.371 18.792H221.239V27H216.739Z" fill="#301D1D"/>
<path d="M200.877 27.36C198.837 27.36 197.229 26.82 196.053 25.74C194.877 24.66 194.289 23.208 194.289 21.384C194.289 19.44 194.937 17.94 196.233 16.884C197.529 15.828 199.365 15.3 201.741 15.3H206.673V13.608C206.673 12.648 206.361 11.904 205.737 11.376C205.113 10.824 204.261 10.548 203.181 10.548C202.197 10.548 201.381 10.764 200.733 11.196C200.085 11.628 199.701 12.216 199.581 12.96H195.189C195.405 11.088 196.245 9.59997 197.709 8.49597C199.173 7.39197 201.045 6.83997 203.325 6.83997C205.749 6.83997 207.657 7.45197 209.049 8.67597C210.465 9.87597 211.173 11.508 211.173 13.572V27H206.817V23.544H206.097L206.817 22.572C206.817 24.036 206.277 25.2 205.197 26.064C204.117 26.928 202.677 27.36 200.877 27.36ZM202.353 23.976C203.625 23.976 204.657 23.652 205.449 23.004C206.265 22.356 206.673 21.516 206.673 20.484V18.072H201.813C200.901 18.072 200.169 18.336 199.617 18.864C199.065 19.392 198.789 20.088 198.789 20.952C198.789 21.888 199.101 22.632 199.725 23.184C200.373 23.712 201.249 23.976 202.353 23.976Z" fill="#301D1D"/>
<path d="M173.459 27V7.19996H177.851V10.98H179.075L177.851 12.024C177.851 10.392 178.319 9.11997 179.255 8.20797C180.215 7.29597 181.523 6.83997 183.179 6.83997C185.123 6.83997 186.671 7.48797 187.823 8.78396C188.999 10.08 189.587 11.82 189.587 14.004V27H185.087V14.472C185.087 13.272 184.775 12.348 184.151 11.7C183.527 11.052 182.651 10.728 181.523 10.728C180.419 10.728 179.543 11.064 178.895 11.736C178.271 12.408 177.959 13.368 177.959 14.616V27H173.459Z" fill="#301D1D"/>
<path d="M159.146 27.324C157.634 27.324 156.314 27.084 155.186 26.604C154.058 26.124 153.17 25.464 152.522 24.624C151.898 23.76 151.562 22.752 151.514 21.6H156.014C156.062 22.224 156.362 22.728 156.914 23.112C157.49 23.496 158.234 23.688 159.146 23.688H160.73C161.834 23.688 162.662 23.472 163.214 23.04C163.766 22.608 164.042 22.02 164.042 21.276C164.042 20.58 163.79 20.04 163.286 19.656C162.806 19.248 162.05 18.984 161.018 18.864L158.57 18.504C156.314 18.192 154.658 17.592 153.602 16.704C152.546 15.816 152.018 14.484 152.018 12.708C152.018 10.86 152.642 9.43198 153.89 8.42398C155.138 7.39198 156.974 6.87598 159.398 6.87598H160.766C162.974 6.87598 164.738 7.36798 166.058 8.35198C167.378 9.33598 168.086 10.656 168.182 12.312H163.682C163.61 11.784 163.31 11.352 162.782 11.016C162.278 10.68 161.606 10.512 160.766 10.512H159.398C158.366 10.512 157.61 10.704 157.13 11.088C156.674 11.448 156.446 11.988 156.446 12.708C156.446 13.38 156.65 13.884 157.058 14.22C157.466 14.532 158.126 14.76 159.038 14.904L161.594 15.264C163.946 15.6 165.674 16.236 166.778 17.172C167.906 18.084 168.47 19.44 168.47 21.24C168.47 23.16 167.81 24.66 166.49 25.74C165.194 26.796 163.274 27.324 160.73 27.324H159.146Z" fill="#301D1D"/>
<path d="M114.534 27.36C112.494 27.36 110.886 26.82 109.71 25.74C108.534 24.66 107.946 23.208 107.946 21.384C107.946 19.44 108.594 17.94 109.89 16.884C111.186 15.828 113.022 15.3 115.398 15.3H120.33V13.608C120.33 12.648 120.018 11.904 119.394 11.376C118.77 10.824 117.918 10.548 116.838 10.548C115.854 10.548 115.038 10.764 114.39 11.196C113.742 11.628 113.358 12.216 113.238 12.96H108.846C109.062 11.088 109.902 9.59997 111.366 8.49597C112.83 7.39197 114.702 6.83997 116.982 6.83997C119.406 6.83997 121.314 7.45197 122.706 8.67597C124.122 9.87597 124.83 11.508 124.83 13.572V27H120.474V23.544H119.754L120.474 22.572C120.474 24.036 119.934 25.2 118.854 26.064C117.774 26.928 116.334 27.36 114.534 27.36ZM116.01 23.976C117.282 23.976 118.314 23.652 119.106 23.004C119.922 22.356 120.33 21.516 120.33 20.484V18.072H115.47C114.558 18.072 113.826 18.336 113.274 18.864C112.722 19.392 112.446 20.088 112.446 20.952C112.446 21.888 112.758 22.632 113.382 23.184C114.03 23.712 114.906 23.976 116.01 23.976Z" fill="#301D1D"/>
<path d="M87.1157 27V7.19996H91.5077V10.98H92.7317L91.5077 12.024C91.5077 10.392 91.9757 9.11997 92.9117 8.20797C93.8717 7.29597 95.1797 6.83997 96.8357 6.83997C98.7797 6.83997 100.328 7.48797 101.48 8.78396C102.656 10.08 103.244 11.82 103.244 14.004V27H98.7437V14.472C98.7437 13.272 98.4317 12.348 97.8077 11.7C97.1837 11.052 96.3077 10.728 95.1797 10.728C94.0757 10.728 93.1997 11.064 92.5517 11.736C91.9277 12.408 91.6157 13.368 91.6157 14.616V27H87.1157Z" fill="#301D1D"/>
<path d="M71.3618 27.36C69.3218 27.36 67.7138 26.82 66.5378 25.74C65.3618 24.66 64.7738 23.208 64.7738 21.384C64.7738 19.44 65.4218 17.94 66.7178 16.884C68.0138 15.828 69.8498 15.3 72.2258 15.3H77.1578V13.608C77.1578 12.648 76.8458 11.904 76.2218 11.376C75.5978 10.824 74.7458 10.548 73.6658 10.548C72.6818 10.548 71.8658 10.764 71.2178 11.196C70.5698 11.628 70.1858 12.216 70.0658 12.96H65.6738C65.8898 11.088 66.7298 9.59997 68.1938 8.49597C69.6578 7.39197 71.5298 6.83997 73.8098 6.83997C76.2338 6.83997 78.1418 7.45197 79.5338 8.67597C80.9498 9.87597 81.6578 11.508 81.6578 13.572V27H77.3018V23.544H76.5818L77.3018 22.572C77.3018 24.036 76.7618 25.2 75.6818 26.064C74.6018 26.928 73.1618 27.36 71.3618 27.36ZM72.8378 23.976C74.1098 23.976 75.1418 23.652 75.9338 23.004C76.7498 22.356 77.1578 21.516 77.1578 20.484V18.072H72.2978C71.3858 18.072 70.6538 18.336 70.1018 18.864C69.5498 19.392 69.2738 20.088 69.2738 20.952C69.2738 21.888 69.5858 22.632 70.2098 23.184C70.8578 23.712 71.7338 23.976 72.8378 23.976Z" fill="#301D1D"/>
<path d="M43.9438 27V7.19996H48.3358V10.98H49.5598L48.3358 12.024C48.3358 10.392 48.8038 9.11997 49.7398 8.20797C50.6998 7.29597 52.0078 6.83997 53.6638 6.83997C55.6078 6.83997 57.1559 7.48797 58.3078 8.78396C59.4839 10.08 60.0718 11.82 60.0718 14.004V27H55.5718V14.472C55.5718 13.272 55.2598 12.348 54.6358 11.7C54.0118 11.052 53.1359 10.728 52.0079 10.728C50.9039 10.728 50.0278 11.064 49.3798 11.736C48.7558 12.408 48.4438 13.368 48.4438 14.616V27H43.9438Z" fill="#301D1D"/>
<path d="M28.1899 27.36C26.1499 27.36 24.5419 26.82 23.3659 25.74C22.1899 24.66 21.6019 23.208 21.6019 21.384C21.6019 19.44 22.2499 17.94 23.5459 16.884C24.8419 15.828 26.6779 15.3 29.0539 15.3H33.9859V13.608C33.9859 12.648 33.6739 11.904 33.0499 11.376C32.4259 10.824 31.5739 10.548 30.4939 10.548C29.5099 10.548 28.6939 10.764 28.0459 11.196C27.3979 11.628 27.0139 12.216 26.8939 12.96H22.5019C22.7179 11.088 23.5579 9.59997 25.0219 8.49597C26.4859 7.39197 28.3579 6.83997 30.6379 6.83997C33.0619 6.83997 34.9699 7.45197 36.3619 8.67597C37.7779 9.87597 38.4859 11.508 38.4859 13.572V27H34.1299V23.544H33.4099L34.1299 22.572C34.1299 24.036 33.5899 25.2 32.5099 26.064C31.4299 26.928 29.9899 27.36 28.1899 27.36ZM29.6659 23.976C30.9379 23.976 31.9699 23.652 32.7619 23.004C33.5779 22.356 33.9859 21.516 33.9859 20.484V18.072H29.1259C28.2139 18.072 27.4819 18.336 26.9299 18.864C26.3779 19.392 26.1019 20.088 26.1019 20.952C26.1019 21.888 26.4139 22.632 27.0379 23.184C27.6859 23.712 28.5619 23.976 29.6659 23.976Z" fill="#301D1D"/>
<path d="M10.492 27.36C8.85997 27.36 7.56397 26.904 6.60397 25.992C5.64397 25.056 5.16397 23.784 5.16397 22.176L6.17197 23.22H5.16397V27H0.771973V0.719971H5.27197V6.26397L5.12797 10.98H6.17197L5.16397 12.024C5.16397 10.416 5.64397 9.15597 6.60397 8.24397C7.56397 7.30797 8.85997 6.83997 10.492 6.83997C12.484 6.83997 14.08 7.52397 15.28 8.89197C16.48 10.26 17.08 12.108 17.08 14.436V19.8C17.08 22.104 16.48 23.94 15.28 25.308C14.08 26.676 12.484 27.36 10.492 27.36ZM8.90797 23.472C10.06 23.472 10.96 23.136 11.608 22.464C12.256 21.792 12.58 20.832 12.58 19.584V14.616C12.58 13.368 12.256 12.408 11.608 11.736C10.96 11.064 10.06 10.728 8.90797 10.728C7.77997 10.728 6.89197 11.076 6.24397 11.772C5.59597 12.444 5.27197 13.392 5.27197 14.616V19.584C5.27197 20.808 5.59597 21.768 6.24397 22.464C6.89197 23.136 7.77997 23.472 8.90797 23.472Z" fill="#301D1D"/>
</svg>
