<svg width="512" height="512" viewBox="0 0 512 512" fill="none" xmlns="http://www.w3.org/2000/svg">
<g filter="url(#filter0_b_8_2)">
<rect width="512" height="512" rx="46" fill="#FFF3CA"/>
</g>
<path d="M175.143 198.35L188.372 180.711C194.252 166.012 213.753 132.205 245.698 132.205C299.924 132.205 268.779 187.578 247.397 231.569C394.615 176.598 505.869 352.685 298.614 365.914C212.232 371.428 181.77 350.131 176.897 321.817C102.815 339.456 56.0824 238.034 60.4921 238.034C64.9017 238.034 78.1307 268.901 113.408 286.54C148.685 304.179 181.023 276.725 192.782 260.793C204.245 240.041 218.341 222.621 223.65 215.985C237.761 198.347 222.879 185.12 213.675 180.711C209.008 184.642 204.806 189.363 201.601 193.94L192.782 211.579H175.143V198.35Z" fill="#FFDE67"/>
<path fill-rule="evenodd" clip-rule="evenodd" d="M186.435 179.62L173.379 197.027C173.093 197.409 172.938 197.873 172.938 198.35V211.579C172.938 212.797 173.925 213.784 175.143 213.784H192.782C193.617 213.784 194.38 213.312 194.754 212.565L203.5 195.073C206.334 191.047 209.965 186.909 213.993 183.349C218.102 185.579 222.9 189.429 225.443 194.393C226.827 197.092 227.536 200.1 227.149 203.395C226.76 206.697 225.251 210.454 221.928 214.608C221.777 214.797 221.618 214.995 221.453 215.201C215.826 222.229 202.144 239.317 190.923 259.599C185.191 267.325 174.472 277.833 160.966 284.265C147.455 290.699 131.283 293.012 114.394 284.568C97.1217 275.932 85.223 264.047 77.0682 254.261C73.9486 250.517 71.4004 247.112 69.2787 244.276C68.6171 243.392 67.997 242.563 67.414 241.797C66.211 240.216 65.1226 238.844 64.1668 237.859C63.6888 237.366 63.178 236.901 62.6429 236.547C62.1336 236.209 61.39 235.829 60.4918 235.829C59.824 235.829 59.1651 236.1 58.687 236.628C58.276 237.083 58.1275 237.585 58.0662 237.888C57.947 238.478 58.0118 239.082 58.0813 239.517C58.2331 240.466 58.6029 241.704 59.118 243.114C60.1642 245.978 61.9655 249.967 64.456 254.642C69.4417 264.001 77.2787 276.274 87.6053 287.997C107.787 310.909 137.959 332.217 175.171 324.462C178.283 338.474 187.689 350.571 206.319 358.577C225.808 366.951 255.425 370.88 298.754 368.114C350.798 364.792 383.381 351.228 400.358 333.119C417.497 314.837 418.416 292.264 407.886 272.144C387.448 233.094 324.083 203.114 251.755 227.675C252.412 226.336 253.076 224.988 253.744 223.632C257.828 215.336 262.05 206.763 265.791 198.383C270.887 186.967 275.177 175.732 277.066 165.802C278.944 155.934 278.546 146.859 273.616 140.229C268.637 133.534 259.554 130 245.698 130C228.888 130 215.485 138.903 205.649 149.442C195.932 159.853 189.494 172.063 186.435 179.62ZM248.993 233.329C245.061 241.439 241.514 249.082 238.926 255.876C236.235 262.94 234.674 268.856 234.674 273.314C234.674 274.467 234.749 275.596 234.896 276.701C248.795 257.609 271.462 247.662 291.165 245.87C301.731 244.909 311.673 246.269 319.09 250.027C326.589 253.826 331.605 260.164 331.686 268.881C331.769 277.747 325.639 284.827 317.179 289.933C308.664 295.072 297.31 298.536 285.752 300.09C274.189 301.645 262.215 301.317 252.425 298.7C242.716 296.105 234.609 291.09 231.819 282.836C230.805 279.839 230.264 276.649 230.264 273.314C230.264 268.012 232.077 261.468 234.806 254.306C237.553 247.095 241.322 239.023 245.414 230.605C246.852 227.645 248.33 224.643 249.821 221.616C253.894 213.344 258.06 204.883 261.764 196.586C266.826 185.247 270.943 174.39 272.734 164.978C274.537 155.504 273.89 147.987 270.077 142.86C266.312 137.797 258.954 134.41 245.698 134.41C230.562 134.41 218.243 142.41 208.872 152.45C200.721 161.184 194.957 171.304 191.709 178.506H201.601C202.819 178.506 203.806 179.494 203.806 180.711V187.484C206.333 184.502 209.195 181.602 212.254 179.025C217.56 174.557 223.617 170.929 229.693 169.67C235.888 168.387 242.103 169.585 247.257 174.739C248.118 175.6 248.118 176.996 247.257 177.857C246.396 178.718 245 178.718 244.139 177.857C240.184 173.902 235.547 172.961 230.587 173.988C226.361 174.864 221.912 177.181 217.648 180.368C221.917 182.972 226.634 187.048 229.368 192.381C231.091 195.745 232.032 199.627 231.528 203.91C231.025 208.186 229.103 212.698 225.371 217.363C225.225 217.545 225.072 217.736 224.913 217.935C219.292 224.956 205.761 241.856 194.712 261.859C190.971 268.632 187.526 275.739 184.773 282.92C180.861 293.123 178.38 303.389 178.377 313.002C178.376 315.886 178.599 318.705 179.07 321.443C181.366 334.784 189.644 346.612 208.06 354.525C226.616 362.499 255.42 366.462 298.473 363.714C350.057 360.421 381.287 347.014 397.141 330.103C412.831 313.367 413.757 292.873 403.979 274.189C384.355 236.694 321.419 206.689 248.993 233.329ZM199.396 193.42V190.051L194.987 198.87V202.239L199.396 193.42ZM190.577 209.374V200.555H177.348V209.374H190.577ZM179.553 196.145H191.419L198.034 182.916H189.475L179.553 196.145ZM236.357 282.375C238.747 288.044 244.872 292.117 253.563 294.44C262.651 296.869 274.015 297.219 285.164 295.72C296.316 294.22 307.046 290.898 314.901 286.157C322.812 281.383 327.338 275.488 327.277 268.922C327.214 262.206 323.472 257.19 317.097 253.961C310.642 250.691 301.597 249.349 291.565 250.262C271.793 252.06 249.07 262.519 236.357 282.375ZM174.412 320.115C174.245 318.825 174.127 317.525 174.055 316.216C155.143 322.766 117.56 318.886 79.7108 270.889C83.0157 275.554 86.7591 280.365 90.9143 285.083C110.742 307.593 139.463 327.461 174.412 320.115ZM80.5484 264.775C88.4262 272.976 98.809 281.706 112.422 288.512C130.81 297.706 148.445 295.112 162.862 288.246C170.894 284.421 177.966 279.257 183.697 274.015C182.617 276.438 181.598 278.883 180.656 281.341C176.819 291.349 174.224 301.648 173.985 311.537C157.655 318.026 119.521 316.406 80.5484 264.775Z" fill="#301D1D"/>
<path d="M174.856 321.82C114.885 335.931 73.4339 271.844 60.205 238.037C102.538 315.647 154.278 320.35 174.856 313.001V321.82Z" fill="#E9D48D"/>
<path d="M408.569 313.001C333.604 356.684 258.64 351.218 227.772 335.05C224.833 340.929 211.897 345.633 183.676 335.05C192.495 348.279 214.543 370.327 293.917 365.917C331.395 363.835 390.93 352.688 408.569 313.001Z" fill="#DCB83B"/>
<path d="M188.085 180.711H201.314V193.94L192.495 211.578H174.856V198.35L188.085 180.711Z" fill="#472A2A"/>
<path fill-rule="evenodd" clip-rule="evenodd" d="M186.321 179.388C186.738 178.833 187.391 178.506 188.085 178.506H201.314C202.531 178.506 203.519 179.493 203.519 180.711V193.94C203.519 194.282 203.439 194.62 203.286 194.926L194.467 212.564C194.093 213.311 193.33 213.783 192.495 213.783H174.856C173.639 213.783 172.651 212.796 172.651 211.578V198.349C172.651 197.872 172.806 197.408 173.092 197.027L186.321 179.388ZM189.187 182.916L179.266 196.145H191.132L197.746 182.916H189.187ZM199.109 190.051L194.699 198.87V202.239L199.109 193.419V190.051ZM190.29 209.373V200.554H177.061V209.373H190.29Z" fill="#301D1D"/>
<path fill-rule="evenodd" clip-rule="evenodd" d="M346.833 262.29C348.05 262.29 349.037 263.277 349.037 264.495C349.037 272.308 342.636 279.498 333.917 285.217C325.036 291.043 313.062 295.816 300.458 298.617C287.855 301.418 274.457 302.283 262.724 300.15C250.998 298.018 240.678 292.832 234.722 283.302C234.076 282.269 234.39 280.909 235.423 280.264C236.455 279.618 237.816 279.932 238.461 280.965C243.529 289.073 252.501 293.809 263.513 295.811C274.517 297.812 287.301 297.024 299.502 294.313C311.702 291.601 323.154 287.004 331.499 281.53C340.006 275.95 344.628 269.91 344.628 264.495C344.628 263.277 345.615 262.29 346.833 262.29Z" fill="#301D1D"/>
<path d="M236.592 282.133C241.001 260.085 315.965 229.218 329.194 264.495C338.613 289.61 254.23 313.001 236.592 282.133Z" fill="#E9D48D"/>
<path fill-rule="evenodd" clip-rule="evenodd" d="M215.328 253.615C216.466 254.048 217.037 255.322 216.603 256.46C209.682 274.629 208.982 289.947 212.216 302.788C215.454 315.64 222.68 326.198 231.916 334.754C250.454 351.926 276.892 360.844 294.28 363.741C295.481 363.942 296.292 365.078 296.092 366.279C295.892 367.48 294.756 368.291 293.555 368.091C275.665 365.109 248.305 355.947 228.92 337.989C219.195 328.981 211.428 317.711 207.94 303.865C204.45 290.01 205.293 273.762 212.483 254.89C212.916 253.752 214.19 253.181 215.328 253.615Z" fill="#301D1D"/>
<path d="M405.139 289.956C407.099 299.499 402.435 308.518 400.049 309.008C397.664 309.498 398.46 301.273 396.5 291.731C394.541 282.188 390.566 274.943 392.952 274.453C395.337 273.963 403.179 280.414 405.139 289.956Z" fill="#FFECA9"/>
<defs>
<filter id="filter0_b_8_2" x="-277.6" y="-277.6" width="1067.2" height="1067.2" filterUnits="userSpaceOnUse" color-interpolation-filters="sRGB">
<feFlood flood-opacity="0" result="BackgroundImageFix"/>
<feGaussianBlur in="BackgroundImageFix" stdDeviation="138.8"/>
<feComposite in2="SourceAlpha" operator="in" result="effect1_backgroundBlur_8_2"/>
<feBlend mode="normal" in="SourceGraphic" in2="effect1_backgroundBlur_8_2" result="shape"/>
</filter>
</defs>
</svg>
