<svg width="357" height="239" viewBox="0 0 357 239" fill="none" xmlns="http://www.w3.org/2000/svg">
<path d="M117.143 68.35L130.372 50.7113C136.252 36.0124 155.753 2.20496 187.698 2.20496C241.924 2.20495 210.779 57.5781 189.397 101.569C336.615 46.5983 447.869 222.685 240.614 235.914C154.232 241.428 123.77 220.131 118.897 191.817C44.8149 209.456 -1.91761 108.034 2.49206 108.034C6.90172 108.034 20.1307 138.901 55.4081 156.54C90.6854 174.179 123.023 146.725 134.782 130.793C146.245 110.041 160.341 92.6212 165.65 85.9854C179.761 68.3468 164.879 55.1199 155.675 50.7113C151.008 54.6421 146.806 59.3625 143.601 63.9403L134.782 81.579H117.143V68.35Z" fill="#FFDE67"/>
<path fill-rule="evenodd" clip-rule="evenodd" d="M128.435 49.6197L115.379 67.027C115.093 67.4086 114.938 67.8728 114.938 68.3499V81.5789C114.938 82.7966 115.925 83.7837 117.143 83.7837H134.782C135.617 83.7837 136.38 83.3119 136.754 82.5649L145.5 65.0728C148.334 61.0467 151.965 56.9089 155.993 53.3489C160.102 55.5789 164.9 59.4294 167.443 64.3926C168.827 67.0919 169.536 70.0995 169.149 73.395C168.76 76.6973 167.251 80.4537 163.928 84.608C163.777 84.797 163.618 84.9948 163.453 85.2014C157.826 92.2291 144.144 109.317 132.923 129.599C127.191 137.325 116.472 147.833 102.966 154.265C89.4555 160.699 73.2826 163.012 56.3938 154.568C39.1217 145.932 27.223 134.047 19.0682 124.261C15.9486 120.517 13.4004 117.112 11.2787 114.276C10.6171 113.392 9.99702 112.563 9.41401 111.797C8.21103 110.216 7.12261 108.844 6.16678 107.859C5.6888 107.366 5.17797 106.901 4.64292 106.547C4.13361 106.209 3.39004 105.829 2.49176 105.829C1.82395 105.829 1.16512 106.1 0.687044 106.628C0.27602 107.083 0.127456 107.585 0.0662486 107.888C-0.0530322 108.478 0.011805 109.082 0.0813073 109.517C0.233116 110.466 0.602878 111.704 1.11798 113.114C2.16416 115.978 3.96553 119.967 6.45598 124.642C11.4417 134.001 19.2787 146.274 29.6053 157.997C49.7868 180.909 79.9591 202.217 117.171 194.462C120.283 208.474 129.689 220.571 148.319 228.577C167.808 236.951 197.425 240.88 240.754 238.114C292.798 234.792 325.381 221.228 342.358 203.119C359.497 184.837 360.416 162.264 349.886 142.144C329.448 103.094 266.083 73.114 193.755 97.6751C194.412 96.3362 195.076 94.9878 195.744 93.632C199.828 85.3363 204.05 76.763 207.791 68.3835C212.887 56.9675 217.177 45.7323 219.066 35.8025C220.944 25.9342 220.546 16.8589 215.616 10.2286C210.637 3.53415 201.554 -7.8851e-07 187.698 0C170.888 0 157.485 8.90312 147.649 19.4415C137.932 29.8525 131.494 42.0628 128.435 49.6197ZM190.993 103.329C187.061 111.439 183.514 119.082 180.926 125.876C178.235 132.94 176.674 138.856 176.674 143.314C176.674 144.467 176.749 145.596 176.896 146.701C190.795 127.609 213.462 117.662 233.165 115.87C243.731 114.909 253.673 116.269 261.09 120.027C268.589 123.826 273.605 130.164 273.686 138.881C273.769 147.747 267.639 154.827 259.179 159.933C250.664 165.072 239.31 168.536 227.752 170.09C216.189 171.645 204.215 171.317 194.425 168.7C184.716 166.105 176.609 161.09 173.819 152.836C172.805 149.839 172.264 146.649 172.264 143.314C172.264 138.012 174.077 131.468 176.806 124.306C179.553 117.095 183.322 109.023 187.414 100.605C188.852 97.6454 190.33 94.6433 191.821 91.6161C195.894 83.3435 200.06 74.8834 203.764 66.5858C208.826 55.2469 212.943 44.3904 214.734 34.9781C216.537 25.5042 215.89 17.9868 212.077 12.8599C208.312 7.79715 200.954 4.40967 187.698 4.40967C172.562 4.40967 160.243 12.4103 150.872 22.4503C142.721 31.1843 136.957 41.304 133.709 48.5064H143.601C144.819 48.5064 145.806 49.4935 145.806 50.7112V57.484C148.333 54.5018 151.195 51.6017 154.254 49.0248C159.56 44.5566 165.617 40.9292 171.693 39.6705C177.888 38.387 184.103 39.5851 189.257 44.7392C190.118 45.6003 190.118 46.9963 189.257 47.8573C188.396 48.7184 187 48.7184 186.139 47.8573C182.184 43.9022 177.547 42.9609 172.587 43.9884C168.361 44.864 163.912 47.1812 159.648 50.3684C163.917 52.972 168.634 57.0483 171.368 62.3814C173.091 65.7447 174.032 69.6265 173.528 73.9098C173.025 78.1862 171.103 82.6975 167.371 87.3627C167.225 87.5454 167.072 87.7363 166.913 87.935C161.292 94.9556 147.761 111.856 136.712 131.859C132.971 138.632 129.526 145.739 126.773 152.92C122.861 163.123 120.38 173.389 120.377 183.002C120.376 185.886 120.599 188.705 121.07 191.443C123.366 204.784 131.644 216.612 150.06 224.525C168.616 232.499 197.42 236.462 240.473 233.714C292.057 230.421 323.287 217.014 339.141 200.103C354.831 183.367 355.757 162.873 345.979 144.189C326.355 106.694 263.419 76.6894 190.993 103.329ZM141.396 63.4197V60.051L136.987 68.8704V72.239L141.396 63.4197ZM132.577 79.374V70.5547H119.348V79.374H132.577ZM121.553 66.145H133.419L140.034 52.916H131.475L121.553 66.145ZM178.357 152.375C180.747 158.044 186.872 162.117 195.563 164.44C204.651 166.869 216.015 167.219 227.164 165.72C238.316 164.22 249.046 160.898 256.901 156.157C264.812 151.383 269.338 145.488 269.277 138.922C269.214 132.206 265.472 127.19 259.097 123.961C252.642 120.691 243.597 119.349 233.565 120.262C213.793 122.06 191.07 132.519 178.357 152.375ZM116.412 190.115C116.245 188.825 116.127 187.525 116.055 186.216C97.1433 192.766 59.56 188.886 21.7108 140.889C25.0157 145.554 28.7591 150.365 32.9143 155.083C52.7423 177.593 81.4626 197.461 116.412 190.115ZM22.5484 134.775C30.4262 142.976 40.809 151.706 54.4218 158.512C72.8103 167.706 90.4449 165.112 104.862 158.246C112.894 154.421 119.966 149.257 125.697 144.015C124.617 146.438 123.598 148.883 122.656 151.341C118.819 161.349 116.224 171.648 115.985 181.537C99.6553 188.026 61.5215 186.406 22.5484 134.775Z" fill="#301D1D"/>
<path d="M116.856 191.82C56.8846 205.931 15.4339 141.844 2.20496 108.037C44.5376 185.647 96.2775 190.35 116.856 183.001V191.82Z" fill="#E9D48D"/>
<path d="M350.569 183.001C275.604 226.684 200.64 221.218 169.772 205.05C166.833 210.929 153.897 215.633 125.676 205.05C134.495 218.279 156.543 240.327 235.917 235.917C273.395 233.835 332.93 222.688 350.569 183.001Z" fill="#DCB83B"/>
<path d="M130.085 50.7112H143.314V63.94L134.495 81.5784H116.856V68.3496L130.085 50.7112Z" fill="#472A2A"/>
<path fill-rule="evenodd" clip-rule="evenodd" d="M128.321 49.3881C128.738 48.833 129.391 48.5062 130.085 48.5062H143.314C144.531 48.5062 145.519 49.4933 145.519 50.711V63.9398C145.519 64.2821 145.439 64.6197 145.286 64.9258L136.467 82.5642C136.093 83.3112 135.33 83.783 134.495 83.783H116.856C115.639 83.783 114.651 82.7959 114.651 81.5782V68.3494C114.651 67.8724 114.806 67.4082 115.092 67.0265L128.321 49.3881ZM131.187 52.9158L121.266 66.1446H133.132L139.746 52.9158H131.187ZM141.109 60.0507L136.699 68.8699V72.2385L141.109 63.4193V60.0507ZM132.29 79.3734V70.5542H119.061V79.3734H132.29Z" fill="#301D1D"/>
<path fill-rule="evenodd" clip-rule="evenodd" d="M288.833 132.29C290.05 132.29 291.037 133.277 291.037 134.495C291.037 142.308 284.636 149.498 275.917 155.217C267.036 161.043 255.062 165.816 242.458 168.617C229.855 171.418 216.457 172.283 204.724 170.15C192.998 168.018 182.678 162.832 176.722 153.302C176.076 152.269 176.39 150.909 177.423 150.264C178.455 149.618 179.816 149.932 180.461 150.965C185.529 159.073 194.501 163.809 205.513 165.811C216.517 167.812 229.301 167.024 241.502 164.313C253.702 161.601 265.154 157.004 273.499 151.53C282.006 145.95 286.628 139.91 286.628 134.495C286.628 133.277 287.615 132.29 288.833 132.29Z" fill="#301D1D"/>
<path d="M178.592 152.133C183.001 130.085 257.965 99.2179 271.194 134.495C280.613 159.61 196.23 183.001 178.592 152.133Z" fill="#E9D48D"/>
<path fill-rule="evenodd" clip-rule="evenodd" d="M157.328 123.615C158.466 124.048 159.037 125.322 158.603 126.46C151.682 144.629 150.982 159.947 154.216 172.788C157.454 185.64 164.68 196.198 173.916 204.754C192.454 221.926 218.892 230.844 236.28 233.741C237.481 233.942 238.292 235.078 238.092 236.279C237.892 237.48 236.756 238.291 235.555 238.091C217.665 235.109 190.305 225.947 170.92 207.989C161.195 198.981 153.428 187.711 149.94 173.865C146.45 160.01 147.293 143.762 154.483 124.89C154.916 123.752 156.19 123.181 157.328 123.615Z" fill="#301D1D"/>
<path d="M347.139 159.956C349.099 169.499 344.435 178.518 342.049 179.008C339.664 179.498 340.46 171.273 338.5 161.731C336.541 152.188 332.566 144.943 334.952 144.453C337.337 143.963 345.179 150.414 347.139 159.956Z" fill="#FFECA9"/>
</svg>
